<svg width="207" height="38" viewBox="0 0 207 38" fill="none" xmlns="http://www.w3.org/2000/svg">
<path d="M19.4453 24.2188V30H0.128906V1.81641H19.4453V7.59766H7.29688V13.2031H18.7227V18.4766H7.29688V24.2188H19.4453ZM30.0719 25.5469C31.1526 25.5469 32.0771 25.2474 32.8453 24.6484C33.6266 24.0495 34.0172 23.2878 34.0172 22.3633V20.8984L30.15 21.1523C29.2516 21.2174 28.5549 21.4518 28.0602 21.8555C27.5654 22.2461 27.318 22.7539 27.318 23.3789C27.318 24.043 27.5654 24.5703 28.0602 24.9609C28.568 25.3516 29.2385 25.5469 30.0719 25.5469ZM27.6109 30.3125C25.6057 30.3125 23.913 29.707 22.5328 28.4961C21.1526 27.2852 20.4625 25.7357 20.4625 23.8477C20.4625 21.8685 21.1982 20.3255 22.6695 19.2188C24.1409 18.112 26.2633 17.474 29.0367 17.3047L34.0172 17.0117V15.8008C34.0172 14.9674 33.7437 14.3229 33.1969 13.8672C32.65 13.3984 31.9143 13.1641 30.9898 13.1641C30.0784 13.1641 29.3297 13.3789 28.7437 13.8086C28.1708 14.2253 27.8323 14.7721 27.7281 15.4492H21.4977C21.6018 13.2487 22.5328 11.4974 24.2906 10.1953C26.0484 8.88021 28.3987 8.22266 31.3414 8.22266C34.1799 8.22266 36.4651 8.88672 38.1969 10.2148C39.9286 11.5299 40.7945 13.2617 40.7945 15.4102V30H34.0562V26.9727H33.9195C33.3596 28.0143 32.5003 28.8346 31.3414 29.4336C30.1826 30.0195 28.9391 30.3125 27.6109 30.3125ZM42.1633 15.1758C42.1633 13.0404 43.0096 11.3477 44.7023 10.0977C46.4081 8.84766 48.7258 8.22266 51.6555 8.22266C54.5461 8.22266 56.8378 8.86719 58.5305 10.1562C60.2232 11.4323 61.0826 13.1706 61.1086 15.3711H54.7805C54.7544 14.6029 54.4549 13.9974 53.882 13.5547C53.3091 13.112 52.5474 12.8906 51.5969 12.8906C50.7505 12.8906 50.0734 13.0599 49.5656 13.3984C49.0578 13.737 48.8039 14.1797 48.8039 14.7266C48.8039 15.5859 49.5982 16.1784 51.1867 16.5039L55.6398 17.4023C57.7622 17.8581 59.2987 18.5482 60.2492 19.4727C61.2128 20.3841 61.6945 21.6471 61.6945 23.2617C61.6945 25.4622 60.7831 27.2201 58.9602 28.5352C57.1372 29.8503 54.7349 30.5078 51.7531 30.5078C48.6932 30.5078 46.2779 29.8633 44.507 28.5742C42.7492 27.2852 41.7987 25.5339 41.6555 23.3203H48.3742C48.4784 24.1146 48.8299 24.7331 49.4289 25.1758C50.0409 25.6185 50.8547 25.8398 51.8703 25.8398C52.7948 25.8398 53.5174 25.6836 54.0383 25.3711C54.5721 25.0456 54.8391 24.6029 54.8391 24.043C54.8391 23.6133 54.6633 23.2682 54.3117 23.0078C53.9602 22.7344 53.3677 22.513 52.5344 22.3438L48.5109 21.5039C46.4276 21.0612 44.8456 20.306 43.7648 19.2383C42.6971 18.1576 42.1633 16.8034 42.1633 15.1758ZM65.6023 37.832C63.9878 37.832 63.1479 37.8255 63.0828 37.8125V32.5781C63.213 32.6042 63.7143 32.6172 64.5867 32.6172C65.6805 32.6172 66.4943 32.4674 67.0281 32.168C67.562 31.8815 67.8745 31.4193 67.9656 30.7812L68.0047 30.4297C68.0177 30.1953 68.0177 30.0521 68.0047 30L60.8367 8.73047H68.4734L72.3211 24.8047H72.4383L76.2664 8.73047H83.5711L76.7742 29.9414C75.8628 32.793 74.5542 34.8177 72.8484 36.0156C71.1427 37.2266 68.7273 37.832 65.6023 37.832Z" fill="white"/>
<path d="M97.1078 30.4883C92.863 30.4883 89.5167 29.2057 87.0687 26.6406C84.6339 24.0625 83.4164 20.4818 83.4164 15.8984C83.4164 11.3281 84.6404 7.76042 87.0883 5.19531C89.5362 2.61719 92.876 1.32812 97.1078 1.32812C99.4646 1.32812 101.6 1.80339 103.514 2.75391C105.428 3.69141 106.945 5.01953 108.065 6.73828C109.198 8.44401 109.797 10.3906 109.862 12.5781H102.967C102.798 10.9245 102.173 9.59635 101.092 8.59375C100.011 7.57812 98.6833 7.07031 97.1078 7.07031C95.1417 7.07031 93.5857 7.85807 92.4398 9.43359C91.294 11.0091 90.7211 13.1576 90.7211 15.8789C90.7211 18.6393 91.294 20.8073 92.4398 22.3828C93.5857 23.9583 95.1482 24.7461 97.1273 24.7461C98.7029 24.7461 100.018 24.2643 101.073 23.3008C102.14 22.3372 102.785 21.0286 103.006 19.375H109.901C109.732 22.7083 108.468 25.3971 106.112 27.4414C103.755 29.4727 100.754 30.4883 97.1078 30.4883ZM111.309 30V1.81641H118.086V12.7344H118.223C118.77 11.3021 119.609 10.2083 120.742 9.45312C121.888 8.69792 123.268 8.32031 124.883 8.32031C127.24 8.32031 129.056 9.02995 130.332 10.4492C131.621 11.8555 132.266 13.8216 132.266 16.3477V30H125.352V17.8516C125.352 16.6276 125.052 15.6771 124.453 15C123.854 14.3099 122.995 13.9648 121.875 13.9648C120.729 13.9648 119.837 14.3359 119.199 15.0781C118.561 15.8203 118.242 16.7969 118.242 18.0078V30H111.309ZM152.13 27.5781C150.19 29.5312 147.534 30.5078 144.162 30.5078C140.789 30.5078 138.133 29.5312 136.193 27.5781C134.253 25.612 133.283 22.8711 133.283 19.3555C133.283 15.9049 134.266 13.1901 136.232 11.2109C138.198 9.21875 140.841 8.22266 144.162 8.22266C147.508 8.22266 150.158 9.21224 152.111 11.1914C154.064 13.1706 155.041 15.8919 155.041 19.3555C155.041 22.8841 154.071 25.625 152.13 27.5781ZM141.33 23.8477C142.02 24.9023 142.964 25.4297 144.162 25.4297C145.36 25.4297 146.304 24.9023 146.994 23.8477C147.684 22.793 148.029 21.3021 148.029 19.375C148.029 17.474 147.677 15.9896 146.974 14.9219C146.284 13.8411 145.347 13.3008 144.162 13.3008C142.977 13.3008 142.039 13.8411 141.349 14.9219C140.659 15.9896 140.314 17.474 140.314 19.375C140.314 21.3021 140.653 22.793 141.33 23.8477ZM156.175 30V8.73047H163.089V30H156.175ZM162.152 6.03516C161.474 6.6862 160.635 7.01172 159.632 7.01172C158.629 7.01172 157.783 6.6862 157.093 6.03516C156.416 5.38411 156.077 4.57682 156.077 3.61328C156.077 2.66276 156.416 1.86198 157.093 1.21094C157.783 0.559896 158.629 0.234375 159.632 0.234375C160.635 0.234375 161.474 0.559896 162.152 1.21094C162.829 1.84896 163.167 2.64974 163.167 3.61328C163.167 4.57682 162.829 5.38411 162.152 6.03516ZM185.044 17.1289H178.677C178.559 16.0091 178.182 15.1237 177.544 14.4727C176.919 13.8216 176.105 13.4961 175.102 13.4961C173.878 13.4961 172.928 14.0039 172.251 15.0195C171.574 16.0352 171.235 17.4805 171.235 19.3555C171.235 21.2435 171.574 22.7018 172.251 23.7305C172.928 24.7461 173.878 25.2539 175.102 25.2539C176.118 25.2539 176.938 24.9479 177.563 24.3359C178.188 23.7109 178.566 22.8451 178.696 21.7383H185.044C184.953 24.4466 184.009 26.5885 182.212 28.1641C180.415 29.7266 178.019 30.5078 175.024 30.5078C171.678 30.5078 169.041 29.5182 167.114 27.5391C165.187 25.5599 164.223 22.832 164.223 19.3555C164.223 15.918 165.187 13.2031 167.114 11.2109C169.041 9.21875 171.665 8.22266 174.985 8.22266C177.967 8.22266 180.363 9.03646 182.173 10.6641C183.996 12.2917 184.953 14.4466 185.044 17.1289ZM196.061 13.1445C195.006 13.1445 194.114 13.5026 193.385 14.2188C192.669 14.9219 192.265 15.8268 192.174 16.9336H199.909C199.843 15.8008 199.459 14.8893 198.756 14.1992C198.053 13.4961 197.155 13.1445 196.061 13.1445ZM200.065 23.2812H206.315C205.976 25.4818 204.896 27.2396 203.073 28.5547C201.25 29.8568 198.952 30.5078 196.178 30.5078C192.793 30.5078 190.143 29.5312 188.229 27.5781C186.315 25.612 185.358 22.9102 185.358 19.4727C185.358 16.0352 186.308 13.3008 188.209 11.2695C190.123 9.23828 192.702 8.22266 195.944 8.22266C199.147 8.22266 201.692 9.19271 203.58 11.1328C205.482 13.0729 206.432 15.6706 206.432 18.9258V20.8789H192.077V21.3086C192.077 22.5846 192.461 23.6198 193.229 24.4141C194.01 25.2083 195.026 25.6055 196.276 25.6055C197.2 25.6055 198.001 25.3971 198.678 24.9805C199.355 24.5638 199.817 23.9974 200.065 23.2812Z" fill="#77080D"/>
</svg>
